<svg xmlns="http://www.w3.org/2000/svg" xmlns:xlink="http://www.w3.org/1999/xlink" width="40" zoomAndPan="magnify" viewBox="0 0 30 30.000001" height="40" preserveAspectRatio="xMidYMid meet" version="1.0"><defs><clipPath id="8d303d02cf"><path d="M 4.128906 2.902344 L 25.902344 2.902344 L 25.902344 26.128906 L 4.128906 26.128906 Z M 4.128906 2.902344 " clip-rule="nonzero"/></clipPath></defs><g clip-path="url(#8d303d02cf)"><path fill="#ffffff" d="M 19.976562 19.277344 C 20.375 20.199219 20.265625 21.164062 20.269531 22.113281 C 20.277344 23.058594 20.277344 24.007812 20.269531 24.953125 C 20.265625 25.65625 19.699219 26.128906 19.042969 25.984375 C 18.589844 25.882812 18.269531 25.488281 18.265625 24.996094 C 18.265625 23.65625 18.257812 22.320312 18.273438 20.980469 C 18.28125 20.3125 18.082031 19.734375 17.632812 19.246094 C 17.34375 18.929688 17.238281 18.570312 17.390625 18.164062 C 17.542969 17.769531 17.851562 17.589844 18.265625 17.511719 C 19.023438 17.371094 19.792969 17.25 20.523438 17.015625 C 22.214844 16.472656 23.207031 15.265625 23.566406 13.542969 C 23.789062 12.488281 23.890625 11.421875 23.621094 10.355469 C 23.445312 9.671875 23.121094 9.058594 22.636719 8.539062 C 22.28125 8.160156 22.199219 7.761719 22.375 7.269531 C 22.632812 6.539062 22.660156 5.789062 22.46875 4.988281 C 22.207031 5.078125 21.945312 5.132812 21.714844 5.25 C 21.128906 5.546875 20.542969 5.847656 19.984375 6.191406 C 19.613281 6.421875 19.253906 6.488281 18.828125 6.378906 C 16.78125 5.847656 14.730469 5.851562 12.679688 6.382812 C 12.265625 6.488281 11.90625 6.4375 11.546875 6.195312 C 10.847656 5.71875 10.109375 5.308594 9.292969 5.066406 C 9.21875 5.042969 9.144531 5.03125 9.050781 5.007812 C 8.898438 5.566406 8.886719 6.117188 8.992188 6.667969 C 9.035156 6.910156 9.109375 7.152344 9.1875 7.390625 C 9.308594 7.773438 9.257812 8.125 8.984375 8.417969 C 8.089844 9.382812 7.695312 10.519531 7.746094 11.828125 C 7.78125 12.730469 7.894531 13.621094 8.230469 14.46875 C 8.777344 15.84375 9.816406 16.675781 11.195312 17.09375 C 11.84375 17.292969 12.515625 17.410156 13.183594 17.523438 C 13.863281 17.640625 14.265625 18.058594 14.175781 18.671875 C 14.148438 18.871094 14.046875 19.082031 13.914062 19.230469 C 13.4375 19.773438 13.234375 20.386719 13.246094 21.101562 C 13.265625 22.394531 13.253906 23.6875 13.25 24.976562 C 13.246094 25.570312 12.824219 26.007812 12.261719 26.015625 C 11.699219 26.023438 11.261719 25.574219 11.257812 24.972656 C 11.253906 24.410156 11.257812 23.847656 11.257812 23.3125 C 10.746094 23.3125 10.253906 23.339844 9.765625 23.308594 C 8.601562 23.234375 7.632812 22.726562 6.84375 21.882812 C 6.484375 21.503906 6.164062 21.085938 5.832031 20.683594 C 5.554688 20.347656 5.269531 20.050781 4.832031 19.902344 C 4.347656 19.734375 4.128906 19.160156 4.292969 18.675781 C 4.464844 18.175781 4.984375 17.902344 5.496094 18.03125 C 6.160156 18.203125 6.675781 18.597656 7.117188 19.101562 C 7.433594 19.46875 7.738281 19.847656 8.039062 20.226562 C 8.875 21.296875 9.972656 21.519531 11.226562 21.21875 C 11.25 20.882812 11.253906 20.554688 11.304688 20.230469 C 11.351562 19.917969 11.445312 19.609375 11.519531 19.289062 C 11.160156 19.183594 10.785156 19.082031 10.417969 18.953125 C 7.742188 18.019531 6.289062 16.089844 5.875 13.332031 C 5.710938 12.246094 5.65625 11.152344 5.90625 10.066406 C 6.105469 9.199219 6.464844 8.40625 6.992188 7.695312 C 7.082031 7.570312 7.117188 7.464844 7.082031 7.308594 C 6.796875 6.066406 6.902344 4.855469 7.375 3.675781 C 7.570312 3.183594 7.898438 2.988281 8.421875 2.960938 C 9.660156 2.902344 10.738281 3.378906 11.753906 3.988281 C 12.242188 4.28125 12.671875 4.332031 13.21875 4.226562 C 15.074219 3.855469 16.9375 3.910156 18.785156 4.308594 C 19 4.355469 19.164062 4.332031 19.351562 4.21875 C 20.269531 3.65625 21.226562 3.171875 22.300781 3 C 22.628906 2.949219 22.972656 2.949219 23.308594 2.980469 C 23.703125 3.015625 23.976562 3.253906 24.128906 3.628906 C 24.617188 4.828125 24.726562 6.0625 24.445312 7.332031 C 24.425781 7.429688 24.449219 7.570312 24.507812 7.648438 C 25.488281 8.992188 25.867188 10.496094 25.765625 12.140625 C 25.699219 13.230469 25.53125 14.300781 25.105469 15.316406 C 24.296875 17.234375 22.828125 18.40625 20.878906 19.023438 C 20.589844 19.113281 20.292969 19.1875 19.976562 19.277344 Z M 19.976562 19.277344 " fill-opacity="1" fill-rule="nonzero"/></g></svg>