<svg xmlns="http://www.w3.org/2000/svg" xmlns:xlink="http://www.w3.org/1999/xlink" width="275" zoomAndPan="magnify" viewBox="0 0 206.25 44.999999" height="60" preserveAspectRatio="xMidYMid meet" version="1.0"><defs><g/><clipPath id="1913f4b24b"><path d="M 0 0.0820312 L 205.503906 0.0820312 L 205.503906 44.917969 L 0 44.917969 Z M 0 0.0820312 " clip-rule="nonzero"/></clipPath><clipPath id="969c9f5de1"><path d="M 0 0.0820312 L 62 0.0820312 L 62 44.917969 L 0 44.917969 Z M 0 0.0820312 " clip-rule="nonzero"/></clipPath></defs><g clip-path="url(#1913f4b24b)"><path fill="#ffffff" d="M 0 0.0820312 L 205.503906 0.0820312 L 205.503906 44.917969 L 0 44.917969 Z M 0 0.0820312 " fill-opacity="1" fill-rule="nonzero"/><path fill="#ffffff" d="M 0 0.0820312 L 205.503906 0.0820312 L 205.503906 44.917969 L 0 44.917969 Z M 0 0.0820312 " fill-opacity="1" fill-rule="nonzero"/></g><g clip-path="url(#969c9f5de1)"><path fill="#000000" d="M 16.308594 0.207031 C 10.710938 0.921875 5.863281 4.960938 4.148438 10.335938 C 3.691406 11.769531 3.511719 13.027344 3.511719 14.746094 C 3.511719 18.640625 4.902344 22.03125 7.652344 24.847656 C 9.382812 26.621094 11.273438 27.816406 13.542969 28.566406 C 15.773438 29.304688 15.890625 29.3125 26.25 29.273438 C 36.773438 29.238281 35.96875 29.304688 38.066406 28.273438 C 39.109375 27.761719 39.375 27.566406 40.378906 26.574219 C 41.308594 25.648438 41.601562 25.277344 42.03125 24.445312 C 42.535156 23.472656 43.003906 22.078125 43.027344 21.496094 C 43.03125 21.339844 43.105469 21.601562 43.191406 22.070312 C 43.445312 23.460938 44.140625 25.054688 44.980469 26.179688 C 45.867188 27.359375 47.386719 28.625 48.71875 29.285156 C 49.503906 29.675781 51.183594 30.1875 51.71875 30.203125 C 51.945312 30.207031 51.703125 30.304688 51.050781 30.46875 C 47.878906 31.269531 45.59375 33.015625 44.171875 35.722656 C 43.683594 36.652344 43.136719 38.324219 43.117188 38.933594 C 43.113281 39.15625 43.050781 39.007812 42.941406 38.503906 C 42.53125 36.605469 41.699219 35.109375 40.3125 33.761719 C 38.929688 32.417969 37.265625 31.570312 35.371094 31.246094 C 34.503906 31.097656 32.863281 31.082031 23.191406 31.113281 C 10.964844 31.15625 11.636719 31.121094 9.484375 31.824219 C 4.277344 33.515625 0.433594 38.421875 0.0742188 43.828125 L 0 44.917969 L 22.546875 44.882812 C 47.585938 44.847656 45.386719 44.914062 47.796875 44.117188 C 52.136719 42.6875 55.730469 39.046875 57.128906 34.660156 C 57.582031 33.230469 57.765625 31.964844 57.769531 30.25 C 57.773438 26.378906 56.371094 22.957031 53.625 20.148438 C 51.894531 18.375 50.003906 17.179688 47.734375 16.429688 C 45.503906 15.6875 45.386719 15.683594 35.027344 15.71875 C 24.503906 15.757812 25.308594 15.691406 23.210938 16.71875 C 22.167969 17.234375 21.902344 17.429688 20.898438 18.421875 C 19.96875 19.347656 19.675781 19.71875 19.246094 20.550781 C 18.742188 21.523438 18.273438 22.917969 18.25 23.5 C 18.246094 23.652344 18.171875 23.394531 18.085938 22.925781 C 17.832031 21.535156 17.136719 19.9375 16.296875 18.816406 C 15.410156 17.636719 13.890625 16.371094 12.558594 15.707031 C 11.773438 15.320312 10.09375 14.808594 9.558594 14.792969 C 9.332031 14.789062 9.574219 14.691406 10.226562 14.527344 C 13.398438 13.726562 15.683594 11.980469 17.105469 9.273438 C 17.59375 8.34375 18.144531 6.667969 18.160156 6.0625 C 18.164062 5.835938 18.226562 5.988281 18.335938 6.492188 C 18.730469 8.316406 19.5625 9.855469 20.84375 11.128906 C 22.070312 12.347656 23.453125 13.140625 25.132812 13.597656 L 26.082031 13.855469 L 37.558594 13.855469 C 50.164062 13.855469 49.644531 13.878906 51.792969 13.167969 C 57.019531 11.441406 60.847656 6.5625 61.203125 1.179688 L 61.277344 0.0820312 L 39.179688 0.09375 C 27.023438 0.101562 16.734375 0.152344 16.308594 0.207031 Z M 16.308594 0.207031 " fill-opacity="1" fill-rule="evenodd"/></g><g fill="#000000" fill-opacity="1"><g transform="translate(62.95841, 28.752266)"><g><path d="M 1.078125 -1.0625 L 1.5 -4.515625 C 2.132812 -4.078125 2.757812 -3.757812 3.375 -3.5625 C 4 -3.375 4.566406 -3.265625 5.078125 -3.234375 C 5.585938 -3.203125 5.960938 -3.191406 6.203125 -3.203125 C 6.703125 -3.234375 7.125 -3.40625 7.46875 -3.71875 C 7.8125 -4.039062 7.960938 -4.425781 7.921875 -4.875 C 7.890625 -5.34375 7.710938 -5.703125 7.390625 -5.953125 C 7.066406 -6.203125 6.671875 -6.398438 6.203125 -6.546875 C 5.347656 -6.867188 4.546875 -7.242188 3.796875 -7.671875 C 3.046875 -8.097656 2.441406 -8.625 1.984375 -9.25 C 1.535156 -9.882812 1.3125 -10.660156 1.3125 -11.578125 C 1.3125 -12.503906 1.507812 -13.335938 1.90625 -14.078125 C 2.300781 -14.828125 2.847656 -15.425781 3.546875 -15.875 C 4.253906 -16.320312 5.066406 -16.566406 5.984375 -16.609375 C 6.410156 -16.640625 6.9375 -16.625 7.5625 -16.5625 C 8.1875 -16.507812 9.023438 -16.296875 10.078125 -15.921875 L 9.671875 -12.734375 C 8.765625 -13.109375 8.039062 -13.320312 7.5 -13.375 C 6.957031 -13.425781 6.554688 -13.445312 6.296875 -13.4375 C 5.710938 -13.40625 5.285156 -13.203125 5.015625 -12.828125 C 4.742188 -12.460938 4.625 -12.046875 4.65625 -11.578125 C 4.707031 -11.117188 4.910156 -10.769531 5.265625 -10.53125 C 5.617188 -10.289062 6.035156 -10.085938 6.515625 -9.921875 C 7.367188 -9.617188 8.15625 -9.238281 8.875 -8.78125 C 9.601562 -8.320312 10.1875 -7.773438 10.625 -7.140625 C 11.0625 -6.503906 11.28125 -5.75 11.28125 -4.875 C 11.28125 -3.96875 11.078125 -3.144531 10.671875 -2.40625 C 10.273438 -1.664062 9.703125 -1.070312 8.953125 -0.625 C 8.210938 -0.175781 7.328125 0.078125 6.296875 0.140625 C 5.992188 0.148438 5.578125 0.132812 5.046875 0.09375 C 4.515625 0.0625 3.910156 -0.0390625 3.234375 -0.21875 C 2.554688 -0.394531 1.835938 -0.675781 1.078125 -1.0625 Z M 1.078125 -1.0625 "/></g></g></g><g fill="#000000" fill-opacity="1"><g transform="translate(75.163669, 28.752266)"><g><path d="M 13.6875 -5.75 C 13.6875 -4.625 13.46875 -3.660156 13.03125 -2.859375 C 12.601562 -2.054688 12.035156 -1.414062 11.328125 -0.9375 C 10.617188 -0.46875 9.84375 -0.15625 9 0 C 8.15625 0.164062 7.304688 0.164062 6.453125 0 C 5.597656 -0.15625 4.816406 -0.46875 4.109375 -0.9375 C 3.398438 -1.414062 2.828125 -2.054688 2.390625 -2.859375 C 1.960938 -3.660156 1.75 -4.625 1.75 -5.75 L 1.75 -16.5 L 5.046875 -16.5 L 5.046875 -5.765625 C 5.046875 -5.078125 5.226562 -4.523438 5.59375 -4.109375 C 5.957031 -3.691406 6.40625 -3.410156 6.9375 -3.265625 C 7.46875 -3.128906 8 -3.128906 8.53125 -3.265625 C 9.0625 -3.410156 9.503906 -3.691406 9.859375 -4.109375 C 10.222656 -4.523438 10.40625 -5.078125 10.40625 -5.765625 L 10.40625 -16.5 L 13.6875 -16.5 Z M 13.6875 -5.75 "/></g></g></g><g fill="#000000" fill-opacity="1"><g transform="translate(90.645198, 28.752266)"><g><path d="M 10.0625 0 L 6.734375 -6.296875 L 5.140625 -6.296875 L 5.140625 0 L 1.84375 0 L 1.84375 -16.5 L 8.359375 -16.5 C 9.335938 -16.5 10.171875 -16.296875 10.859375 -15.890625 C 11.546875 -15.484375 12.082031 -14.953125 12.46875 -14.296875 C 12.851562 -13.640625 13.085938 -12.929688 13.171875 -12.171875 C 13.265625 -11.410156 13.207031 -10.664062 13 -9.9375 C 12.789062 -9.207031 12.4375 -8.5625 11.9375 -8 C 11.4375 -7.4375 10.78125 -7.039062 9.96875 -6.8125 L 13.796875 0 Z M 5.140625 -9.515625 L 8.046875 -9.515625 C 8.492188 -9.515625 8.851562 -9.632812 9.125 -9.875 C 9.394531 -10.125 9.578125 -10.429688 9.671875 -10.796875 C 9.765625 -11.171875 9.765625 -11.539062 9.671875 -11.90625 C 9.578125 -12.28125 9.394531 -12.585938 9.125 -12.828125 C 8.851562 -13.078125 8.492188 -13.203125 8.046875 -13.203125 L 5.140625 -13.203125 Z M 5.140625 -9.515625 "/></g></g></g><g fill="#000000" fill-opacity="1"><g transform="translate(104.788538, 28.752266)"><g><path d="M 5.890625 0 L 5.890625 -7.4375 L 0.140625 -16.5 L 4.15625 -16.5 L 7.53125 -10.828125 L 10.890625 -16.5 L 14.9375 -16.5 L 9.15625 -7.4375 L 9.15625 0 Z M 5.890625 0 "/></g></g></g><g fill="#000000" fill-opacity="1"><g transform="translate(117.961959, 28.752266)"><g><path d="M 0.375 0 L 7.3125 -17.09375 L 7.65625 -17.09375 L 14.609375 0 L 10.890625 0 L 10.21875 -1.78125 L 4.75 -1.78125 L 4.109375 0 Z M 5.953125 -4.875 L 9 -4.875 L 7.5 -9.15625 Z M 5.953125 -4.875 "/></g></g></g><g fill="#000000" fill-opacity="1"><g transform="translate(133.028181, 28.752266)"><g><path d="M 1.84375 0 L 1.84375 -16.5 L 5.140625 -16.5 L 5.140625 -9.921875 L 9.296875 -16.5 L 13.15625 -16.5 L 7.796875 -8.359375 L 13.609375 0 L 9.53125 0 L 5.140625 -6.46875 L 5.140625 0 Z M 1.84375 0 "/></g></g></g><g fill="#000000" fill-opacity="1"><g transform="translate(146.963868, 28.752266)"><g><path d="M 0.375 0 L 7.3125 -17.09375 L 7.65625 -17.09375 L 14.609375 0 L 10.890625 0 L 10.21875 -1.78125 L 4.75 -1.78125 L 4.109375 0 Z M 5.953125 -4.875 L 9 -4.875 L 7.5 -9.15625 Z M 5.953125 -4.875 "/></g></g></g><g fill="#000000" fill-opacity="1"><g transform="translate(162.03009, 28.752266)"><g><path d="M 5.140625 -8.984375 L 5.140625 0 L 1.84375 0 L 1.84375 -16.84375 L 2.71875 -16.84375 L 11.046875 -7.15625 L 11.046875 -16.484375 L 14.375 -16.484375 L 14.375 0.34375 L 13.5 0.34375 Z M 5.140625 -8.984375 "/></g></g></g><g fill="#000000" fill-opacity="1"><g transform="translate(178.273007, 28.752266)"><g><path d="M 7.875 0 L 4.5625 0 L 4.5625 -13.203125 L 0.46875 -13.203125 L 0.46875 -16.484375 L 11.984375 -16.484375 L 11.984375 -13.203125 L 7.875 -13.203125 Z M 7.875 0 "/></g></g></g><g fill="#000000" fill-opacity="1"><g transform="translate(190.893572, 28.752266)"><g><path d="M 13.390625 0 L 10.078125 0 L 10.078125 -6.59375 L 5.140625 -6.59375 L 5.140625 0 L 1.84375 0 L 1.84375 -16.5 L 5.140625 -16.5 L 5.140625 -9.90625 L 10.078125 -9.90625 L 10.078125 -16.5 L 13.390625 -16.5 Z M 13.390625 0 "/></g></g></g></svg>